<?xml version="1.0" standalone="no"?>
<!DOCTYPE svg PUBLIC "-//W3C//DTD SVG 20010904//EN"
 "http://www.w3.org/TR/2001/REC-SVG-20010904/DTD/svg10.dtd">
<svg version="1.0" xmlns="http://www.w3.org/2000/svg"
 width="1200.000000pt" height="630.000000pt" viewBox="0 0 1200.000000 630.000000"
 preserveAspectRatio="xMidYMid meet">

<g transform="translate(0.000000,630.000000) scale(0.100000,-0.100000)"
fill="#000000" stroke="none">
<path d="M5843 6290 c-131 -24 -269 -74 -366 -132 -89 -54 -166 -121 -337
-292 -91 -91 -170 -166 -177 -166 -6 0 -92 39 -190 86 -98 48 -275 133 -393
189 -118 57 -300 144 -405 195 -196 95 -234 107 -282 95 -31 -7 -295 -262
-319 -307 -19 -36 -18 -77 4 -115 10 -21 99 -95 237 -200 121 -93 267 -205
325 -249 58 -44 164 -125 235 -179 72 -54 140 -107 152 -119 l23 -21 -298
-297 -297 -297 -150 15 c-82 8 -201 17 -263 21 l-112 6 -185 -184 c-117 -117
-186 -194 -191 -211 -15 -66 29 -127 108 -151 29 -9 111 -32 182 -51 71 -20
130 -37 132 -39 2 -2 -6 -41 -17 -88 -30 -124 -58 -314 -70 -484 -11 -155 -3
-348 23 -562 l12 -101 -51 -114 c-251 -557 -366 -1121 -308 -1510 40 -267 114
-447 251 -614 189 -232 444 -360 808 -405 374 -46 931 73 1464 314 l114 51
101 -13 c501 -61 906 -18 1362 144 218 77 595 277 662 351 50 55 36 144 -29
185 -51 31 -93 21 -206 -52 -195 -127 -462 -248 -692 -313 -73 -20 -181 -46
-195 -46 -3 0 -5 71 -5 158 0 96 -6 183 -14 223 -41 191 -214 350 -411 379
-38 5 -212 10 -385 10 -309 0 -316 1 -365 24 -53 24 -109 80 -127 125 -5 14
-16 66 -24 114 -22 148 -83 246 -186 298 -70 36 -96 40 -273 48 -192 8 -232
20 -307 95 -46 46 -66 82 -84 151 -19 68 -17 102 6 178 40 129 147 211 296
226 44 4 93 15 110 24 46 24 92 81 99 124 14 82 18 99 36 134 10 20 35 47 56
60 l38 24 410 0 c402 0 411 0 465 -22 73 -30 135 -92 174 -173 l31 -65 3 -325
c1 -179 7 -341 12 -360 15 -55 79 -130 140 -164 52 -29 63 -31 195 -37 156 -7
191 -17 253 -74 69 -62 82 -114 82 -321 0 -192 8 -229 56 -260 55 -36 142 -17
170 38 21 41 20 424 -2 498 -23 78 -71 156 -131 216 -104 102 -187 134 -370
143 -87 4 -137 11 -145 19 -10 10 -14 92 -18 340 -5 272 -9 337 -23 383 -54
175 -191 316 -375 385 -42 16 -94 18 -482 22 -315 3 -450 0 -490 -8 -115 -25
-221 -112 -276 -225 -19 -38 -34 -79 -34 -90 0 -33 -12 -41 -85 -53 -200 -35
-376 -199 -439 -411 -25 -86 -21 -223 9 -320 55 -174 180 -301 364 -369 57
-21 88 -25 226 -30 222 -6 227 -10 250 -163 31 -209 162 -367 352 -425 49 -15
113 -19 423 -23 350 -6 367 -7 405 -28 52 -28 100 -78 122 -128 14 -32 18 -76
21 -221 l4 -182 -99 -7 c-125 -10 -389 1 -518 20 -552 83 -1023 312 -1423 691
-226 214 -434 505 -558 782 -19 42 -39 86 -44 97 -36 76 -130 388 -130 433 0
27 83 181 209 390 134 223 137 227 147 222 5 -3 24 -57 42 -120 35 -122 55
-153 107 -170 57 -19 93 4 247 155 209 205 208 203 208 283 0 37 -9 155 -20
262 l-19 195 296 297 c163 163 300 295 304 292 6 -3 546 -705 691 -898 49 -64
83 -86 137 -86 44 0 46 1 203 158 200 200 195 172 67 438 -87 179 -132 275
-254 529 -29 61 -92 191 -139 289 -47 98 -86 184 -86 190 0 6 51 61 113 122
115 115 184 164 445 321 182 109 325 183 354 183 28 0 214 -50 303 -82 359
-128 667 -318 945 -584 l113 -109 -164 -6 c-90 -4 -191 -12 -224 -18 -77 -16
-226 -88 -287 -139 -147 -123 -237 -294 -254 -484 -10 -116 -24 -130 -137
-143 -69 -8 -154 -36 -206 -67 -59 -36 -139 -118 -172 -175 -93 -162 -94 -413
-3 -576 36 -65 122 -149 190 -186 111 -60 128 -62 719 -59 l535 3 32 33 c28
28 33 39 33 82 0 43 -5 54 -33 82 l-32 33 -538 5 -537 5 -47 24 c-54 26 -103
78 -126 130 -9 23 -15 70 -15 131 -1 111 18 165 78 223 45 43 97 64 186 72
173 16 299 143 315 316 16 180 66 280 186 371 96 73 133 81 408 88 135 3 252
9 261 14 40 18 252 -361 341 -609 102 -283 144 -504 155 -810 14 -431 -73
-827 -271 -1234 -52 -107 -56 -134 -23 -182 40 -60 105 -76 163 -40 72 44 237
442 308 743 76 324 91 658 45 1035 l-13 101 51 114 c142 313 243 634 294 938
33 193 33 507 0 660 -81 382 -270 644 -576 798 -525 265 -1344 147 -2219 -320
-70 -38 -130 -67 -132 -65 -3 2 3 35 13 73 21 89 24 324 4 371 -24 58 -65 74
-199 78 -64 2 -140 0 -169 -5z m137 -282 c0 -60 -35 -198 -67 -266 -47 -100
-82 -143 -318 -382 -193 -195 -233 -241 -239 -271 -7 -41 4 -78 59 -189 42
-84 143 -293 215 -445 26 -55 77 -161 113 -235 35 -74 92 -193 126 -264 l62
-129 -44 -45 -44 -44 -57 73 c-31 41 -106 139 -167 219 -61 80 -201 263 -311
407 -233 307 -253 322 -346 274 -20 -11 -204 -187 -409 -393 -294 -296 -373
-380 -381 -409 -7 -25 -4 -108 11 -278 l20 -243 -51 -51 c-28 -28 -54 -49 -57
-46 -5 6 -23 68 -100 349 -73 267 -84 297 -116 324 -16 14 -49 30 -72 36 -23
6 -89 24 -147 40 -58 16 -178 49 -268 74 -90 24 -166 47 -170 50 -3 4 16 29
44 57 l49 51 90 -6 c50 -3 161 -13 248 -22 86 -9 170 -13 185 -9 28 7 737 703
793 779 34 46 38 97 11 139 -17 24 -108 97 -547 433 -60 46 -181 139 -268 205
l-159 122 44 44 44 44 125 -59 c68 -33 192 -92 274 -132 83 -40 186 -89 230
-110 44 -21 182 -87 307 -148 124 -60 243 -115 262 -122 71 -23 84 -14 336
235 129 128 260 248 291 268 107 68 247 114 357 116 l42 1 0 -42z m2142 27
c426 -64 699 -336 763 -760 43 -289 -2 -640 -131 -1024 -81 -240 -73 -232
-118 -109 -152 413 -439 828 -771 1117 -278 242 -537 399 -869 526 l-108 42
88 33 c263 95 517 161 694 179 138 14 348 12 452 -4z m-4489 -2242 l67 -17 20
-65 c10 -37 25 -87 31 -112 l13 -47 -72 -103 c-39 -57 -113 -171 -164 -253
l-93 -150 -3 100 c-5 139 14 333 49 508 16 81 32 153 35 158 4 5 16 7 28 4 11
-4 51 -14 89 -23z m-273 -1625 c155 -436 459 -866 830 -1174 249 -208 540
-378 819 -480 l104 -38 -40 -17 c-94 -40 -352 -121 -475 -150 -250 -58 -520
-74 -723 -44 -355 54 -608 256 -716 574 -97 285 -74 697 62 1136 40 126 97
285 104 285 1 0 17 -42 35 -92z"/>
<path d="M7985 1483 c-32 -8 -74 -54 -85 -91 -19 -70 44 -152 116 -152 70 0
130 71 121 142 -6 46 -29 75 -74 94 -33 14 -43 15 -78 7z"/>
</g>
</svg>
